<?xml version="1.0" encoding="UTF-8"?>
<svg id="Layer_1" data-name="Layer 1" xmlns="http://www.w3.org/2000/svg" viewBox="0 0 184.18 50">
  <defs>
    <style>
      text {
        font-family: DINCondensed-Bold, 'DIN Condensed';
        font-size: 48px;
        font-weight: 700;
        fill: #08f;
      }

      .cls-2 {
        fill: #08f;
      }

      .cls-3 {
        fill: transparent;
      }
    </style>
  </defs>
  <path class="cls-2" d="M25,5C15,5,5,25,5,45h10c0-20,10-40,20-40"/>
  <path class="cls-2" d="M45,5c-10,0-20,20-20,40h10c0-20,10-40,20-40"/>
  <path class="cls-2" d="M45,5c-10,0-15,5-20,15"/>
  <path class="cls-2" d="M35,5c-5,0-10,10-10,15l-5,5v-10l5-10h10Z"/>
  <polyline class="cls-2" points="25 20 20 25 30 20 35 15 35 10"/>
  <path class="cls-2" d="M20,40S35,5,55,5h-10l-25,20h0v15Z"/>
  <path class="cls-2" d="M20,40S15,5,25,5l-5,30v5h0Z"/>
  <path class="cls-2" d="M40,30c0,10,5,15,15,15,3.38,0-3.38,0,0,0,10,0,15-5,15-15V5h-20s0,5,0,5h10s0,20,0,20c0,2.76-2.24,5-5,5h0c-2.76,0-5-2.24-5-5v-5h-10"/>
  <path class="cls-3" d="M35,45c0-20,10-40,20-40s15,0,5,0-20,20-20,40h-5Z"/>
  <text transform="translate(72.5 45)">FINDER</text>
</svg>